<svg xmlns="http://www.w3.org/2000/svg" width="1920" height="1080" viewBox="0 0 1920 1080">
<defs><linearGradient id="sky" x1="0" y1="0" x2="0" y2="1"><stop stop-color="#1d2a30"/><stop offset="1" stop-color="#7fc2c9"/></linearGradient><filter id="glow"><feGaussianBlur stdDeviation="4" result="b"/><feMerge><feMergeNode in="b"/><feMergeNode in="SourceGraphic"/></feMerge></filter></defs>
<style>.edge{stroke:#d9e2e4;stroke-width:4;opacity:.42}.solution{stroke:#62c7cb;stroke-width:7;filter:url(#glow)}.detour{stroke:#9aa9ae;stroke-width:3;stroke-dasharray:8 7;opacity:.58}.node circle{fill:#3a4750;stroke:#dce8ed;stroke-width:2}.node text{fill:#dce8ed;font:18px sans-serif}.spawn circle{fill:#dce8ed}.goal circle{fill:#62c7cb;filter:url(#glow)}.ghost{fill:none;stroke:#dce8ed;stroke-width:2;stroke-dasharray:8 7;opacity:.34}</style>
<rect width="100%" height="100%" fill="url(#sky)"/><polygon points="1007.7,722.8 1132.8,795.1 918.3,919.0 793.2,846.7" fill="#258b9e" opacity=".88"/><polygon points="891.5,555.0 1007.7,622.1 793.2,746.0 677.0,678.9" fill="#56636c" stroke="#8d96a0" stroke-width="2"/><polygon points="1132.8,694.4 1249.0,761.4 1034.5,885.3 918.3,818.2" fill="#56636c" stroke="#8d96a0" stroke-width="2"/><polygon points="1007.7,721.6 1132.8,793.9 918.3,917.7 793.2,845.5" fill="none" stroke="#90d5d8" stroke-width="3" opacity=".58"/><polygon points="766.3,647.1 766.3,688.4 766.3,277.6 766.3,236.3" fill="#3a4750" opacity=".9"/><polygon points="766.3,647.1 694.8,647.1 694.8,236.3 766.3,236.3" fill="#8d96a0" opacity=".85"/><polygon points="1227.6,748.2 1227.6,789.5 1227.6,420.0 1227.6,378.7" fill="#3a4750" opacity=".9"/><polygon points="828.0,704.6 879.9,734.5 854.8,749.0 803.0,719.0" class="ghost"/><polygon points="881.7,735.5 933.5,765.5 908.5,779.9 856.6,750.0" class="ghost"/><polygon points="935.3,766.5 987.1,796.4 962.1,810.9 910.3,780.9" class="ghost"/><polygon points="888.8,669.3 940.7,699.2 915.6,713.7 863.8,683.7" fill="#a4adb5" stroke="#dce8ed" stroke-width="2"/><polygon points="942.4,700.2 994.3,730.2 969.3,744.6 917.4,714.7" fill="#a4adb5" stroke="#dce8ed" stroke-width="2"/><polygon points="996.1,731.2 1047.9,761.1 1022.9,775.6 971.0,745.6" fill="#a4adb5" stroke="#dce8ed" stroke-width="2"/><g><line x1="877.1880448856763" y1="593.816326279385" x2="873.6124900113252" y2="626.8458873867261" class="solution"/><line x1="873.6124900113252" y1="626.8458873867261" x2="862.8858253882723" y2="670.1971863401112" class="solution"/><line x1="862.8858253882723" y1="670.1971863401112" x2="809.2525022730077" y2="709.4197901550787" class="edge"/><line x1="862.8858253882723" y1="670.1971863401112" x2="1041.6635691058214" y2="773.4145648005521" class="solution"/><line x1="1041.6635691058214" y1="773.4145648005521" x2="1095.2968922210862" y2="775.4789123697608" class="solution"/><line x1="1095.2968922210862" y1="775.4789123697608" x2="1154.2935476478774" y2="774.4467385851564" class="solution"/><line x1="873.6124900113252" y1="626.8458873867261" x2="889.7024869459048" y2="651.8244929741527" class="detour"/><line x1="889.7024869459048" y1="651.8244929741527" x2="914.7313710663616" y2="665.2427521740101" class="detour"/><line x1="914.7313710663616" y1="665.2427521740101" x2="939.7602551868184" y2="678.6610113738674" class="detour"/><line x1="939.7602551868184" y1="678.6610113738674" x2="961.2135844329244" y2="695.5886614413795" class="detour"/></g><line x1="889.7024869459048" y1="649.1408411341812" x2="836.06916383064" y2="680.1060546723135" stroke="#dce8ed" stroke-width="6" opacity=".7"/><circle cx="889.7024869459048" cy="649.1408411341812" r="4.8999999999999995" fill="#3a4750" stroke="#dce8ed" stroke-width="2"/><circle cx="871.8247125741498" cy="659.4625789802253" r="4.8999999999999995" fill="#3a4750" stroke="#dce8ed" stroke-width="2"/><circle cx="853.9469382023949" cy="669.7843168262693" r="4.8999999999999995" fill="#3a4750" stroke="#dce8ed" stroke-width="2"/><circle cx="836.06916383064" cy="680.1060546723135" r="12.6" fill="#62c7cb" stroke="#dce8ed" stroke-width="2"/><g><g class="node spawn"><circle cx="877.1880493164062" cy="593.8163452148438" r="7"/><text x="888.1880493164062" y="584.8163452148438">start</text></g><g class="node"><circle cx="873.6124877929688" cy="626.8458862304688" r="7"/><text x="884.6124877929688" y="617.8458862304688">west-path</text></g><g class="node"><circle cx="862.8858032226562" cy="670.1972045898438" r="7"/><text x="873.8858032226562" y="661.1972045898438">promise-stone</text></g><g class="node"><circle cx="809.2525024414062" cy="709.4197998046875" r="7"/><text x="820.2525024414062" y="700.4197998046875">shortcut-mouth</text></g><g class="node"><circle cx="980.879150390625" cy="808.5084838867188" r="7"/><text x="991.879150390625" y="799.5084838867188">shortcut-far</text></g><g class="node"><circle cx="1041.66357421875" cy="773.41455078125" r="7"/><text x="1052.66357421875" y="764.41455078125">child-side</text></g><g class="node"><circle cx="1095.296875" cy="775.4788818359375" r="7"/><text x="1106.296875" y="766.4788818359375">east-path</text></g><g class="node goal"><circle cx="1154.2935791015625" cy="774.4467163085938" r="7"/><text x="1165.2935791015625" y="765.4467163085938">goal</text></g><g class="node"><circle cx="889.7025146484375" cy="651.8245239257812" r="7"/><text x="900.7025146484375" y="642.8245239257812">lower-step-1</text></g><g class="node"><circle cx="914.7313842773438" cy="665.2427368164062" r="7"/><text x="925.7313842773438" y="656.2427368164062">lower-step-2</text></g><g class="node"><circle cx="939.76025390625" cy="678.6610107421875" r="7"/><text x="950.76025390625" y="669.6610107421875">lower-step-3</text></g><g class="node"><circle cx="961.2135620117188" cy="695.5886840820312" r="7"/><text x="972.2135620117188" y="686.5886840820312">lower-bank</text></g></g><g transform="translate(1032.724681919944 766.8086525790837)"><circle cy="-13" r="7" fill="#d69a72"/><path d="M0 -6V18M0 4l-11 12M0 4l11 12" stroke="#49aeb0" stroke-width="5" fill="none"/><text x="16" y="-15" fill="#dce8ed" font-size="18">enfant</text></g><text x="943.3358100611695" y="740.5914384501318" fill="#d9c46b" font-size="34" filter="url(#glow)">✧</text><text x="882.5513771972028" y="747.1973506716" text-anchor="middle" fill="#dce8ed" opacity=".58" font-size="18">raccourci abandonné</text><text x="955.8502521213978" y="698.6851827951929" text-anchor="middle" fill="#62c7cb" font-size="18" filter="url(#glow)">pont promis · 3/3</text><text x="96" y="97.2" fill="#dce8ed" font-family="serif" font-size="34">Chapitre 2 — La Parole donnée</text><text x="96" y="131.2" fill="#dce8ed" opacity=".78" font-family="sans-serif" font-size="18">Capture technique · le même jeu de trois dalles a changé de rive</text><text x="96" y="1026" fill="#dce8ed" opacity=".72" font-family="sans-serif" font-size="18">Vue desktop-1920x1080 · état final, géométrie et projection réels</text></svg>